<svg width="16" height="16" viewBox="0 0 16 16" fill="none" xmlns="http://www.w3.org/2000/svg">
<rect width="16" height="16" fill="#F5F5F5"/>
<g id="Desktop - 1" clip-path="url(#clip0_0_1)">
<rect width="1440" height="3502" transform="translate(-557 -446)" fill="#EEEEEE"/>
<g id="Group 141">
</g>
<rect id="Rectangle 31" x="-382" y="-366" width="1090" height="3202" fill="white"/>
<g id="Group 117">
<g id="Group 105" filter="url(#filter0_d_0_1)">
<g id="Frame 5">
<rect x="-125" y="-10" width="150" height="35" rx="17.5" fill="#D7D7D7"/>
</g>
<g id="Frame 105">
<path d="M-10 -10H7.5C17.165 -10 25 -2.16498 25 7.5C25 17.165 17.165 25 7.5 25H-10V-10Z" fill="black"/>
<g id="Group 104">
<circle id="Ellipse 31" cx="6.52174" cy="6.52174" r="5.52174" stroke="white" stroke-width="2"/>
<path id="Vector 214" d="M14.2929 15.7071C14.6834 16.0976 15.3166 16.0976 15.7071 15.7071C16.0976 15.3166 16.0976 14.6834 15.7071 14.2929L14.2929 15.7071ZM11.468 10.0538L10.7609 9.34665L9.34665 10.7609L10.0538 11.468L11.468 10.0538ZM15.7071 14.2929L11.468 10.0538L10.0538 11.468L14.2929 15.7071L15.7071 14.2929Z" fill="white"/>
</g>
</g>
</g>
</g>
</g>
<defs>
<filter id="filter0_d_0_1" x="-125" y="-10" width="153" height="38" filterUnits="userSpaceOnUse" color-interpolation-filters="sRGB">
<feFlood flood-opacity="0" result="BackgroundImageFix"/>
<feColorMatrix in="SourceAlpha" type="matrix" values="0 0 0 0 0 0 0 0 0 0 0 0 0 0 0 0 0 0 127 0" result="hardAlpha"/>
<feOffset dx="3" dy="3"/>
<feComposite in2="hardAlpha" operator="out"/>
<feColorMatrix type="matrix" values="0 0 0 0 0 0 0 0 0 0 0 0 0 0 0 0 0 0 0.25 0"/>
<feBlend mode="normal" in2="BackgroundImageFix" result="effect1_dropShadow_0_1"/>
<feBlend mode="normal" in="SourceGraphic" in2="effect1_dropShadow_0_1" result="shape"/>
</filter>
<clipPath id="clip0_0_1">
<rect width="1440" height="3502" fill="white" transform="translate(-557 -446)"/>
</clipPath>
</defs>
</svg>
